<svg id="svg" fill="#ffffff" stroke="#ffffff" width="200" height="200" version="1.1" viewBox="144 144 512 512" xmlns="http://www.w3.org/2000/svg">
    <g id="IconSvg_bgCarrier" stroke-width="0"></g>
    <g id="IconSvg_tracerCarrier" stroke-linecap="round" stroke-linejoin="round" stroke="#CCCCCC" stroke-width="0">
      <path xmlns="http://www.w3.org/2000/svg" d="m384.88 324.43v15.117h-61.641c-4.1289 0-7.9766 2.0195-10.32 5.375l-0.48047 0.73828-47.723 79.527 77.34 0.003906c6.6797 0 12.145 5.1992 12.57 11.77l0.027344 0.82812v20.152c0 3.9258 2.9961 7.1562 6.8281 7.5234l0.72656 0.03125h80.613c3.9258 0 7.1562-2.9961 7.5195-6.8281l0.035156-0.72656v-20.152c0-6.6797 5.1992-12.145 11.77-12.57l0.82812-0.027344 77.332-0.003906-47.715-79.527c-2.125-3.5391-5.8359-5.8008-9.9219-6.0859l-0.87891-0.027343h-61.641v-15.117h61.641c9.3281 0 18 4.6914 23.113 12.43l0.64844 1.0234 51.715 86.191c2.3242 3.8789 3.6641 8.2578 3.9062 12.754l0.042969 1.5039v64.953c0 14.93-11.809 27.102-26.598 27.688l-1.1133 0.019531h-261.98c-14.93 0-27.102-11.809-27.688-26.594l-0.023438-1.1133v-64.953c0-4.5195 1.1055-8.9648 3.2109-12.945l0.73828-1.3125 51.715-86.191c4.8008-7.9961 13.285-13.02 22.547-13.426l1.2148-0.027344zm-45.34 115.88-80.609-0.007813v62.984c0 6.6758 5.1953 12.141 11.766 12.566l0.82812 0.027344h261.98c6.6797 0 12.141-5.1992 12.57-11.766l0.023437-0.82812v-62.984l-80.609 0.007813v17.633c0 12.164-9.5781 22.09-21.602 22.645l-1.0664 0.027344h-80.613c-12.16 0-22.086-9.5781-22.645-21.605l-0.023437-1.0664zm62.957-181.37c3.9297 0 7.1562 2.9961 7.5234 6.8281l0.035156 0.72656-0.003906 116.05 15.602-15.598c2.7773-2.7773 7.1797-2.9414 10.148-0.48828l0.53906 0.48828c2.7773 2.7773 2.9414 7.1797 0.49219 10.148l-0.49219 0.53906-28.5 28.5c-2.7773 2.7773-7.1797 2.9414-10.148 0.48828l-0.53906-0.48828-28.496-28.5c-2.9531-2.9531-2.9531-7.7344 0-10.688 2.7773-2.7773 7.1758-2.9414 10.145-0.48828l0.53906 0.48828 15.598 15.598 0.003906-116.05c0-4.1719 3.3828-7.5547 7.5547-7.5547z"></path>

      </g>
     <g id="IconSvg_iconCarrier">
      <path xmlns="http://www.w3.org/2000/svg" d="m384.88 324.43v15.117h-61.641c-4.1289 0-7.9766 2.0195-10.32 5.375l-0.48047 0.73828-47.723 79.527 77.34 0.003906c6.6797 0 12.145 5.1992 12.57 11.77l0.027344 0.82812v20.152c0 3.9258 2.9961 7.1562 6.8281 7.5234l0.72656 0.03125h80.613c3.9258 0 7.1562-2.9961 7.5195-6.8281l0.035156-0.72656v-20.152c0-6.6797 5.1992-12.145 11.77-12.57l0.82812-0.027344 77.332-0.003906-47.715-79.527c-2.125-3.5391-5.8359-5.8008-9.9219-6.0859l-0.87891-0.027343h-61.641v-15.117h61.641c9.3281 0 18 4.6914 23.113 12.43l0.64844 1.0234 51.715 86.191c2.3242 3.8789 3.6641 8.2578 3.9062 12.754l0.042969 1.5039v64.953c0 14.93-11.809 27.102-26.598 27.688l-1.1133 0.019531h-261.98c-14.93 0-27.102-11.809-27.688-26.594l-0.023438-1.1133v-64.953c0-4.5195 1.1055-8.9648 3.2109-12.945l0.73828-1.3125 51.715-86.191c4.8008-7.9961 13.285-13.02 22.547-13.426l1.2148-0.027344zm-45.34 115.88-80.609-0.007813v62.984c0 6.6758 5.1953 12.141 11.766 12.566l0.82812 0.027344h261.98c6.6797 0 12.141-5.1992 12.57-11.766l0.023437-0.82812v-62.984l-80.609 0.007813v17.633c0 12.164-9.5781 22.09-21.602 22.645l-1.0664 0.027344h-80.613c-12.16 0-22.086-9.5781-22.645-21.605l-0.023437-1.0664zm62.957-181.37c3.9297 0 7.1562 2.9961 7.5234 6.8281l0.035156 0.72656-0.003906 116.05 15.602-15.598c2.7773-2.7773 7.1797-2.9414 10.148-0.48828l0.53906 0.48828c2.7773 2.7773 2.9414 7.1797 0.49219 10.148l-0.49219 0.53906-28.5 28.5c-2.7773 2.7773-7.1797 2.9414-10.148 0.48828l-0.53906-0.48828-28.496-28.5c-2.9531-2.9531-2.9531-7.7344 0-10.688 2.7773-2.7773 7.1758-2.9414 10.145-0.48828l0.53906 0.48828 15.598 15.598 0.003906-116.05c0-4.1719 3.3828-7.5547 7.5547-7.5547z"></path>

      </g>
      </svg>